# xmcd CD database file
#
# Track frame offsets:
#	150
#	14255
#	27592
#	40505
#	53615
#	65190
#	77872
#	92090
#	105665
#	120282
#	131827
#	145585
#	159717
#	172930
#	186420
#	200345
#	213372
#	227497
#	238487
#	251402
#
# Disc length: 3512 seconds
#
# Revision: 0
# Processed by: cddbd v1.4PL0 Copyright (c) Steve Scherf et al.
# Submitted via: CDex 1.50beta10
#
DISCID=120db614
DTITLE=Bix Beiderbecke - The Bix Beiderbecke Collection
DYEAR=1987
DGENRE=Jazz
TTITLE0=Riverboat Shuffle
TTITLE1=Clementine
TTITLE2=Way Down Yonder In New Orleans
TTITLE3=Royal Garden Blues
TTITLE4=Tiger Rag
TTITLE5=Davenport Blues
TTITLE6=I'm Coming Virginia
TTITLE7=Three Blind Mice
TTITLE8=Ol' Man River
TTITLE9=Coquette
TTITLE10=Dardanella
TTITLE11=Georgia On My Mind
TTITLE12=Strut Miss Lizzie
TTITLE13=Singin' The Blues
TTITLE14=Ostrich Walk
TTITLE15=Sorry
TTITLE16=Sugar
TTITLE17=Georgie Porgie
TTITLE18=Felix, The Cat
TTITLE19=Is it Gonna Be Long
EXTD=YEAR: 1987
EXTT0=
EXTT1=
EXTT2=
EXTT3=
EXTT4=
EXTT5=
EXTT6=
EXTT7=
EXTT8=
EXTT9=
EXTT10=
EXTT11=
EXTT12=
EXTT13=
EXTT14=
EXTT15=
EXTT16=
EXTT17=
EXTT18=
EXTT19=
PLAYORDER=
